# xmcd
#
# Track frame offsets: 
#        150
#        13658
#        28616
#        39863
#        51590
#        62876
#        73004
#        89861
#        107226
#        124176
#        136706
#        153448
#        164851
#        179979
#        193297
#        204269
#
# Disc length: 2962 seconds
#
# Revision: 0
# Processed by: cddbd v1.5.2PL0 Copyright (c) Steve Scherf et al.
# Submitted via: ExactAudioCopy v0.95b4
#
DISCID=f70b9010
DTITLE=Various Artist - The Very Best of Country Legends - CD1
DYEAR=2007
DGENRE=Country
TTITLE0=Tammy Wynette - DIVORCE
TTITLE1=George Jones - He Stopped Loving Her Today
TTITLE2=Conway Twitty - Hello Darling
TTITLE3=Patsy Cline - Walking After Midnight
TTITLE4=Roger Miller - King Of The Road
TTITLE5=Don Everly - Brother Jukebox
TTITLE6=Brenda Lee - Johnny One Time
TTITLE7=Bobby Goldsboro - Honey
TTITLE8=Lee Greenwood - Ring On Her Finger, Time On Her Hands
TTITLE9=Barbara Mandrell - Midnight Oil
TTITLE10=Merle Haggard - Today I Started Loving You Again
TTITLE11=Janie Fricke - Down To My Last Broken Heart
TTITLE12=Ed Bruce - You Turn Me On Like A Radio
TTITLE13=Tanya Tucker - Jamestown Ferry
TTITLE14=Mickey Gilley - She Called Me Baby
TTITLE15=Willie Nelson - Crazy
EXTD=
EXTT0=
EXTT1=
EXTT2=
EXTT3=
EXTT4=
EXTT5=
EXTT6=
EXTT7=
EXTT8=
EXTT9=
EXTT10=
EXTT11=
EXTT12=
EXTT13=
EXTT14=
EXTT15=
PLAYORDER=
